<svg 
 xmlns="http://www.w3.org/2000/svg"
 xmlns:xlink="http://www.w3.org/1999/xlink"
 width="22px" height="18px">
<path fill-rule="evenodd"  fill="rgb(255, 255, 255)"
 d="M21.393,0.332 C20.520,0.853 19.554,1.231 18.525,1.436 C17.702,0.551 16.530,-0.000 15.232,-0.000 C12.739,-0.000 10.718,2.036 10.718,4.544 C10.718,4.900 10.758,5.248 10.835,5.580 C7.084,5.390 3.759,3.580 1.533,0.831 C1.144,1.501 0.922,2.282 0.922,3.115 C0.922,4.693 1.720,6.084 2.930,6.898 C2.190,6.873 1.494,6.668 0.885,6.327 L0.885,6.384 C0.885,8.586 2.441,10.422 4.505,10.842 C4.127,10.944 3.728,11.001 3.316,11.001 C3.025,11.001 2.743,10.971 2.466,10.919 C3.041,12.724 4.707,14.038 6.681,14.076 C5.137,15.294 3.191,16.020 1.077,16.020 C0.712,16.020 0.353,15.999 -0.000,15.958 C1.998,17.247 4.369,18.000 6.918,18.000 C15.220,18.000 19.759,11.074 19.759,5.068 L19.745,4.479 C20.629,3.841 21.396,3.040 22.000,2.130 C21.190,2.491 20.322,2.736 19.409,2.846 C20.341,2.283 21.055,1.391 21.393,0.332 Z"/>
</svg>