<svg 
 xmlns="http://www.w3.org/2000/svg"
 xmlns:xlink="http://www.w3.org/1999/xlink"
 width="56px" height="50px">
<path fill-rule="evenodd"  fill="rgb(60, 73, 85)"
 d="M3.000,-0.000 L47.000,-0.000 C48.657,-0.000 50.000,1.343 50.000,3.000 L50.000,47.000 C50.000,48.657 48.657,50.000 47.000,50.000 L3.000,50.000 C1.343,50.000 0.000,48.657 0.000,47.000 L0.000,3.000 C0.000,1.343 1.343,-0.000 3.000,-0.000 Z"/>
<path fill-rule="evenodd"  fill="rgb(60, 73, 85)"
 d="M48.500,17.996 L56.004,25.500 L48.500,33.004 L40.996,25.500 L48.500,17.996 Z"/>
<path fill-rule="evenodd"  fill="rgb(255, 255, 255)"
 d="M35.449,32.467 C35.082,32.824 34.641,33.002 34.125,33.002 L16.875,33.002 C16.359,33.002 15.918,32.824 15.551,32.467 C15.183,32.111 15.000,31.683 15.000,31.183 L15.000,22.158 C15.344,22.530 15.738,22.859 16.184,23.147 C19.012,25.011 20.953,26.318 22.008,27.068 C22.453,27.387 22.814,27.635 23.092,27.813 C23.369,27.991 23.738,28.173 24.199,28.359 C24.660,28.544 25.090,28.637 25.488,28.637 L25.500,28.637 L25.512,28.637 C25.910,28.637 26.340,28.544 26.801,28.359 C27.262,28.173 27.631,27.991 27.908,27.813 C28.186,27.635 28.547,27.387 28.992,27.068 C30.320,26.136 32.266,24.829 34.828,23.147 C35.273,22.852 35.664,22.522 36.000,22.158 L36.000,31.183 C36.000,31.683 35.816,32.111 35.449,32.467 ZM33.996,21.931 C31.059,23.909 29.230,25.140 28.512,25.625 C28.434,25.678 28.267,25.793 28.014,25.971 C27.760,26.150 27.549,26.294 27.381,26.404 C27.213,26.514 27.010,26.636 26.772,26.773 C26.533,26.909 26.309,27.012 26.098,27.080 C25.887,27.148 25.691,27.182 25.512,27.182 L25.500,27.182 L25.488,27.182 C25.308,27.182 25.113,27.148 24.902,27.080 C24.691,27.012 24.467,26.909 24.228,26.773 C23.990,26.637 23.787,26.514 23.619,26.404 C23.451,26.294 23.240,26.150 22.986,25.971 C22.732,25.794 22.566,25.678 22.488,25.625 C21.777,25.140 20.754,24.449 19.418,23.551 C18.082,22.653 17.281,22.113 17.016,21.931 C16.531,21.613 16.074,21.175 15.644,20.618 C15.215,20.061 15.000,19.544 15.000,19.067 C15.000,18.476 15.162,17.983 15.486,17.589 C15.810,17.195 16.273,16.998 16.875,16.998 L34.125,16.998 C34.633,16.998 35.072,17.176 35.443,17.532 C35.814,17.888 36.000,18.317 36.000,18.817 C36.000,19.415 35.809,19.987 35.426,20.533 C35.043,21.078 34.566,21.545 33.996,21.931 Z"/>
</svg>