<svg 
 xmlns="http://www.w3.org/2000/svg"
 xmlns:xlink="http://www.w3.org/1999/xlink"
 width="57px" height="228px">
<path fill-rule="evenodd"  fill="rgb(60, 73, 85)"
 d="M3.000,-0.000 L47.000,-0.000 C48.657,-0.000 50.000,1.343 50.000,3.000 L50.000,225.000 C50.000,226.657 48.657,228.000 47.000,228.000 L3.000,228.000 C1.343,228.000 -0.000,226.657 -0.000,225.000 L-0.000,3.000 C-0.000,1.343 1.343,-0.000 3.000,-0.000 Z"/>
<path fill-rule="evenodd"  fill="rgb(60, 73, 85)"
 d="M49.500,18.996 L57.004,26.500 L49.500,34.004 L41.996,26.500 L49.500,18.996 Z"/>
<path fill-rule="evenodd"  fill="rgb(255, 255, 255)"
 d="M33.875,16.000 C35.601,16.000 37.000,17.399 37.000,19.125 C37.000,19.828 36.767,20.478 36.375,21.000 L35.125,22.250 L30.750,17.875 L32.000,16.625 C32.522,16.233 33.171,16.000 33.875,16.000 ZM18.250,30.375 L17.000,36.000 L22.625,34.750 L34.187,23.187 L29.812,18.812 L18.250,30.375 ZM30.976,23.101 L22.226,31.851 L21.149,30.774 L29.899,22.024 L30.976,23.101 Z"/>
</svg>