<svg 
 xmlns="http://www.w3.org/2000/svg"
 xmlns:xlink="http://www.w3.org/1999/xlink"
 width="56px" height="50px">
<path fill-rule="evenodd"  fill="rgb(60, 73, 85)"
 d="M3.000,-0.000 L47.000,-0.000 C48.657,-0.000 50.000,1.343 50.000,3.000 L50.000,47.000 C50.000,48.657 48.657,50.000 47.000,50.000 L3.000,50.000 C1.343,50.000 -0.000,48.657 -0.000,47.000 L-0.000,3.000 C-0.000,1.343 1.343,-0.000 3.000,-0.000 Z"/>
<path fill-rule="evenodd"  fill="rgb(60, 73, 85)"
 d="M48.500,17.996 L56.004,25.500 L48.500,33.004 L40.996,25.500 L48.500,17.996 Z"/>
<path fill-rule="evenodd"  fill="rgb(255, 255, 255)"
 d="M35.798,35.429 C35.568,35.786 35.178,36.000 34.755,36.000 L15.245,36.000 C14.822,36.000 14.432,35.786 14.202,35.429 C13.971,35.071 13.936,34.624 14.108,34.234 L16.596,28.575 C16.710,28.316 16.910,28.102 17.159,27.971 L21.021,25.941 C21.106,25.896 21.209,25.905 21.286,25.964 C22.378,26.798 23.662,27.239 25.000,27.239 C26.337,27.239 27.622,26.798 28.714,25.964 C28.791,25.905 28.894,25.896 28.979,25.941 L32.841,27.971 C33.090,28.102 33.290,28.316 33.404,28.575 L35.892,34.234 C36.064,34.624 36.028,35.071 35.798,35.429 ZM25.000,25.656 C22.276,25.656 20.067,23.047 20.067,19.828 C20.067,15.364 22.276,14.000 25.000,14.000 C27.724,14.000 29.933,15.364 29.933,19.828 C29.933,23.047 27.724,25.656 25.000,25.656 Z"/>
</svg>